# Blender 4.1.1
# www.blender.org
mtllib cornell.mtl
o Plane
v -5.000000 5.000000 0.000000
v -5.000000 -5.000000 0.000000
v 5.000000 5.000000 0.000000
v 5.000000 -5.000000 0.000000
v -5.000000 5.000000 10.000000
v 5.000000 5.000000 10.000000
v -5.000000 -5.000000 10.000000
v 5.000000 -5.000000 10.000000
vn -0.0000 -0.0000 1.0000
vn -0.0000 -1.0000 -0.0000
vn -0.0000 -0.0000 -1.0000
vt 1.000000 0.000000
vt 0.000000 1.000000
vt 0.000000 0.000000
vt 1.000000 1.000000
s 0
usemtl Material.001
f 2/1/1 3/2/1 1/3/1
f 3/2/2 5/3/2 1/3/2
f 6/2/3 7/3/3 5/3/3
f 2/1/1 4/4/1 3/2/1
f 3/2/2 6/2/2 5/3/2
f 6/2/3 8/2/3 7/3/3
o Plane.001
v 5.000000 5.000000 0.000000
v 5.000000 -5.000000 0.000000
v 5.000000 5.000000 10.000000
v 5.000000 -5.000000 10.000000
vn -1.0000 -0.0000 -0.0000
vt 1.000000 0.000000
vt 0.000000 1.000000
vt 0.000000 0.000000
vt 1.000000 1.000000
s 0
usemtl Material.002
f 10/5/4 11/6/4 9/7/4
f 10/5/4 12/8/4 11/6/4
o Plane.002
v -5.000000 5.000000 10.000000
v -5.000000 -5.000000 10.000000
v -5.000000 5.000000 0.000000
v -5.000000 -5.000000 0.000000
vn 1.0000 -0.0000 -0.0000
vt 1.000000 0.000000
vt 0.000000 1.000000
vt 0.000000 0.000000
vt 1.000000 1.000000
s 0
usemtl Material.003
f 14/9/5 15/10/5 13/11/5
f 14/9/5 16/12/5 15/10/5
o Plane.003
v 1.000000 -1.000000 9.990000
v -1.000000 -1.000000 9.990000
v 1.000000 1.000000 9.990000
v -1.000000 1.000000 9.990000
vn -0.0000 -0.0000 -1.0000
vt 1.000000 0.000000
vt 0.000000 1.000000
vt 0.000000 0.000000
vt 1.000000 1.000000
s 0
usemtl Material.004
f 18/13/6 19/14/6 17/15/6
f 18/13/6 20/16/6 19/14/6
o Cube
v -2.623201 -0.185894 0.000000
v -2.623201 -0.185894 6.000000
v -4.123201 2.412182 0.000000
v -4.123201 2.412182 6.000000
v -0.025126 1.314106 0.000000
v -0.025126 1.314106 6.000000
v -1.525125 3.912182 0.000000
v -1.525125 3.912182 6.000000
vn -0.8660 -0.5000 -0.0000
vn -0.5000 0.8660 -0.0000
vn 0.8660 0.5000 -0.0000
vn 0.5000 -0.8660 -0.0000
vn -0.0000 -0.0000 -1.0000
vn -0.0000 -0.0000 1.0000
vt 0.625000 0.000000
vt 0.375000 0.250000
vt 0.375000 0.000000
vt 0.625000 0.250000
vt 0.375000 0.500000
vt 0.625000 0.500000
vt 0.375000 0.750000
vt 0.625000 0.750000
vt 0.375000 1.000000
vt 0.125000 0.750000
vt 0.125000 0.500000
vt 0.875000 0.500000
vt 0.625000 1.000000
vt 0.875000 0.750000
s 0
usemtl Material.005
f 22/17/7 23/18/7 21/19/7
f 24/20/8 27/21/8 23/18/8
f 28/22/9 25/23/9 27/21/9
f 26/24/10 21/25/10 25/23/10
f 27/21/11 21/26/11 23/27/11
f 24/28/12 26/24/12 28/22/12
f 22/17/7 24/20/7 23/18/7
f 24/20/8 28/22/8 27/21/8
f 28/22/9 26/24/9 25/23/9
f 26/24/10 22/29/10 21/25/10
f 27/21/11 25/23/11 21/26/11
f 24/28/12 22/30/12 26/24/12
o Cube.001
v -0.062730 -2.525710 0.000000
v -0.062730 -2.525710 3.000000
v 1.205125 0.193214 0.000000
v 1.205125 0.193214 3.000000
v 2.656193 -3.793565 0.000000
v 2.656193 -3.793565 3.000000
v 3.924048 -1.074641 0.000000
v 3.924048 -1.074641 3.000000
vn -0.9063 0.4226 -0.0000
vn 0.4226 0.9063 -0.0000
vn 0.9063 -0.4226 -0.0000
vn -0.4226 -0.9063 -0.0000
vn -0.0000 -0.0000 -1.0000
vn -0.0000 -0.0000 1.0000
vt 0.625000 0.000000
vt 0.375000 0.250000
vt 0.375000 0.000000
vt 0.625000 0.250000
vt 0.375000 0.500000
vt 0.625000 0.500000
vt 0.375000 0.750000
vt 0.625000 0.750000
vt 0.375000 1.000000
vt 0.125000 0.750000
vt 0.125000 0.500000
vt 0.875000 0.500000
vt 0.625000 1.000000
vt 0.875000 0.750000
s 0
f 30/31/13 31/32/13 29/33/13
f 32/34/14 35/35/14 31/32/14
f 36/36/15 33/37/15 35/35/15
f 34/38/16 29/39/16 33/37/16
f 35/35/17 29/40/17 31/41/17
f 32/42/18 34/38/18 36/36/18
f 30/31/13 32/34/13 31/32/13
f 32/34/14 36/36/14 35/35/14
f 36/36/15 34/38/15 33/37/15
f 34/38/16 30/43/16 29/39/16
f 35/35/17 33/37/17 29/40/17
f 32/42/18 30/44/18 34/38/18
