# Blender 4.1.1
# www.blender.org
mtllib one.mtl
o floor
v -10.000000 -10.000000 0.000000
v 10.000000 -10.000000 0.000000
v -10.000000 10.000000 0.000000
v 10.000000 10.000000 0.000000
vn -0.0000 -0.0000 1.0000
vt 0.000000 0.000000
vt 1.000000 0.000000
vt 1.000000 1.000000
vt 0.000000 1.000000
s 0
usemtl floor
f 1/1/1 2/2/1 4/3/1 3/4/1
o ball1
v 0.000000 0.400000 0.700000
v 0.217082 0.242282 0.865834
v -0.082916 0.144805 0.865834
v -0.268328 0.400000 0.865835
v -0.082916 0.655195 0.865834
v 0.217082 0.557718 0.865834
v 0.082916 0.144805 1.134166
v -0.217082 0.242282 1.134166
v -0.217082 0.557718 1.134166
v 0.082916 0.655195 1.134166
v 0.268328 0.400000 1.134165
v 0.000000 0.400000 1.300000
v -0.048737 0.250001 0.744804
v 0.127597 0.307297 0.744804
v 0.078861 0.157297 0.842279
v 0.255194 0.400000 0.842279
v 0.127597 0.492703 0.744804
v -0.157719 0.400000 0.744805
v -0.206457 0.250001 0.842279
v -0.048737 0.549999 0.744804
v -0.206457 0.549999 0.842279
v 0.078861 0.642704 0.842279
v 0.285317 0.307296 1.000000
v 0.285317 0.492704 1.000000
v 0.000000 0.100000 1.000000
v 0.176336 0.157295 1.000000
v -0.285317 0.307296 1.000000
v -0.176336 0.157295 1.000000
v -0.176336 0.642705 1.000000
v -0.285317 0.492704 1.000000
v 0.176336 0.642705 1.000000
v 0.000000 0.700000 1.000000
v 0.206457 0.250001 1.157721
v -0.078861 0.157297 1.157721
v -0.255194 0.400000 1.157721
v -0.078861 0.642704 1.157721
v 0.206457 0.549999 1.157721
v 0.048737 0.250001 1.255196
v 0.157719 0.400000 1.255195
v -0.127597 0.307297 1.255196
v -0.127597 0.492703 1.255196
v 0.048737 0.549999 1.255196
vn 0.1024 -0.3151 -0.9435
vn 0.7002 -0.2680 -0.6617
vn -0.2680 -0.1947 -0.9435
vn -0.2680 0.1947 -0.9435
vn 0.1024 0.3151 -0.9435
vn 0.9050 -0.2680 -0.3304
vn 0.0247 -0.9435 -0.3304
vn -0.8897 -0.3151 -0.3304
vn -0.5746 0.7488 -0.3304
vn 0.5346 0.7779 -0.3304
vn 0.8026 -0.5831 -0.1256
vn -0.3066 -0.9435 -0.1256
vn -0.9921 -0.0000 -0.1256
vn -0.3066 0.9435 -0.1256
vn 0.8026 0.5831 -0.1256
vn 0.4089 -0.6284 0.6617
vn -0.4713 -0.5831 0.6617
vn -0.7002 0.2680 0.6617
vn 0.0385 0.7488 0.6617
vn 0.7240 0.1947 0.6617
vn 0.2680 0.1947 0.9435
vn 0.4911 0.3568 0.7947
vn 0.4089 0.6284 0.6617
vn -0.1024 0.3151 0.9435
vn -0.1876 0.5773 0.7947
vn -0.4713 0.5831 0.6617
vn -0.3313 -0.0000 0.9435
vn -0.6071 -0.0000 0.7947
vn -0.7002 -0.2680 0.6617
vn -0.1024 -0.3151 0.9435
vn -0.1876 -0.5773 0.7947
vn 0.0385 -0.7488 0.6617
vn 0.2680 -0.1947 0.9435
vn 0.4911 -0.3568 0.7947
vn 0.7240 -0.1947 0.6617
vn 0.8897 0.3151 0.3304
vn 0.7947 0.5773 0.1876
vn 0.5746 0.7488 0.3304
vn -0.0247 0.9435 0.3304
vn -0.3035 0.9342 0.1876
vn -0.5346 0.7779 0.3304
vn -0.9050 0.2680 0.3304
vn -0.9822 -0.0000 0.1876
vn -0.9050 -0.2680 0.3304
vn -0.5346 -0.7779 0.3304
vn -0.3035 -0.9342 0.1876
vn -0.0247 -0.9435 0.3304
vn 0.5746 -0.7488 0.3304
vn 0.7947 -0.5773 0.1876
vn 0.8897 -0.3151 0.3304
vn 0.3066 0.9435 0.1256
vn 0.3035 0.9342 -0.1876
vn 0.0247 0.9435 -0.3304
vn -0.8026 0.5831 0.1256
vn -0.7947 0.5773 -0.1876
vn -0.8897 0.3151 -0.3304
vn -0.8026 -0.5831 0.1256
vn -0.7947 -0.5773 -0.1876
vn -0.5746 -0.7488 -0.3304
vn 0.3066 -0.9435 0.1256
vn 0.3035 -0.9342 -0.1876
vn 0.5346 -0.7779 -0.3304
vn 0.9921 -0.0000 0.1256
vn 0.9822 -0.0000 -0.1876
vn 0.9050 0.2680 -0.3304
vn 0.4713 0.5831 -0.6617
vn 0.1876 0.5773 -0.7947
vn -0.0385 0.7488 -0.6617
vn -0.4089 0.6284 -0.6617
vn -0.4911 0.3568 -0.7947
vn -0.7240 0.1947 -0.6617
vn -0.7240 -0.1947 -0.6617
vn -0.4911 -0.3568 -0.7947
vn -0.4089 -0.6284 -0.6617
vn 0.7002 0.2680 -0.6617
vn 0.6071 -0.0000 -0.7947
vn 0.3313 -0.0000 -0.9435
vn -0.0385 -0.7488 -0.6617
vn 0.1876 -0.5773 -0.7947
vn 0.4713 -0.5831 -0.6617
vt 0.181819 0.000000
vt 0.227273 0.078731
vt 0.136365 0.078731
vt 0.272728 0.157461
vt 0.318182 0.078731
vt 0.363637 0.157461
vt 0.909091 0.000000
vt 0.954545 0.078731
vt 0.863636 0.078731
vt 0.727273 0.000000
vt 0.772727 0.078731
vt 0.681818 0.078731
vt 0.545455 0.000000
vt 0.590909 0.078731
vt 0.500000 0.078731
vt 0.318182 0.236191
vt 0.090910 0.157461
vt 0.181819 0.157461
vt 0.136365 0.236191
vt 0.818182 0.157461
vt 0.909091 0.157461
vt 0.863636 0.236191
vt 0.636364 0.157461
vt 0.727273 0.157461
vt 0.681818 0.236191
vt 0.454546 0.157461
vt 0.545455 0.157461
vt 0.500000 0.236191
vt 0.227273 0.236191
vt 0.045455 0.236191
vt 0.772727 0.236191
vt 0.590909 0.236191
vt 0.409092 0.236191
vt 0.181819 0.314921
vt 0.272728 0.314921
vt 0.227273 0.393651
vt 0.000000 0.314921
vt 0.090910 0.314921
vt 0.045455 0.393651
vt 0.727273 0.314921
vt 0.818182 0.314921
vt 0.772727 0.393651
vt 0.545455 0.314921
vt 0.636364 0.314921
vt 0.590909 0.393651
vt 0.363637 0.314921
vt 0.454546 0.314921
vt 0.409092 0.393651
vt 0.500000 0.393651
vt 0.454546 0.472382
vt 0.681818 0.393651
vt 0.636364 0.472382
vt 0.863636 0.393651
vt 0.818182 0.472382
vt 0.909091 0.314921
vt 0.136365 0.393651
vt 0.090910 0.472382
vt 0.318182 0.393651
vt 0.272728 0.472382
vt 0.954545 0.236191
vt 1.000000 0.157461
vt 0.409092 0.078731
vt 0.363637 0.000000
s 0
usemtl ball1
f 5/5/2 18/6/2 17/7/2
f 6/8/3 18/9/3 20/10/3
f 5/11/4 17/12/4 22/13/4
f 5/14/5 22/15/5 24/16/5
f 5/17/6 24/18/6 21/19/6
f 6/8/7 20/10/7 27/20/7
f 7/21/8 19/22/8 29/23/8
f 8/24/9 23/25/9 31/26/9
f 9/27/10 25/28/10 33/29/10
f 10/30/11 26/31/11 35/32/11
f 6/8/12 27/20/12 30/33/12
f 7/21/13 29/23/13 32/34/13
f 8/24/14 31/26/14 34/35/14
f 9/27/15 33/29/15 36/36/15
f 10/30/16 35/32/16 28/37/16
f 11/38/17 37/39/17 42/40/17
f 12/41/18 38/42/18 44/43/18
f 13/44/19 39/45/19 45/46/19
f 14/47/20 40/48/20 46/49/20
f 15/50/21 41/51/21 43/52/21
f 43/52/22 46/53/22 16/54/22
f 43/52/23 41/51/23 46/53/23
f 41/51/24 14/47/24 46/53/24
f 46/49/25 45/55/25 16/56/25
f 46/49/26 40/48/26 45/55/26
f 40/48/27 13/44/27 45/55/27
f 45/46/28 44/57/28 16/58/28
f 45/46/29 39/45/29 44/57/29
f 39/45/30 12/59/30 44/57/30
f 44/43/31 42/60/31 16/61/31
f 44/43/32 38/42/32 42/60/32
f 38/42/33 11/38/33 42/60/33
f 42/40/34 43/62/34 16/63/34
f 42/40/35 37/39/35 43/62/35
f 37/39/36 15/50/36 43/62/36
f 28/37/37 41/51/37 15/50/37
f 28/37/38 35/32/38 41/51/38
f 35/32/39 14/47/39 41/51/39
f 36/36/40 40/48/40 14/47/40
f 36/36/41 33/29/41 40/48/41
f 33/29/42 13/44/42 40/48/42
f 34/35/43 39/45/43 13/44/43
f 34/35/44 31/26/44 39/45/44
f 31/26/45 12/59/45 39/45/45
f 32/34/46 38/42/46 12/41/46
f 32/34/47 29/23/47 38/42/47
f 29/23/48 11/38/48 38/42/48
f 30/33/49 37/39/49 11/38/49
f 30/33/50 27/20/50 37/39/50
f 27/20/51 15/50/51 37/39/51
f 35/32/52 36/36/52 14/47/52
f 35/32/53 26/31/53 36/36/53
f 26/31/54 9/27/54 36/36/54
f 33/29/55 34/35/55 13/44/55
f 33/29/56 25/28/56 34/35/56
f 25/28/57 8/24/57 34/35/57
f 31/26/58 32/64/58 12/59/58
f 31/26/59 23/25/59 32/64/59
f 23/25/60 7/65/60 32/64/60
f 29/23/61 30/33/61 11/38/61
f 29/23/62 19/22/62 30/33/62
f 19/22/63 6/8/63 30/33/63
f 27/20/64 28/37/64 15/50/64
f 27/20/65 20/10/65 28/37/65
f 20/10/66 10/30/66 28/37/66
f 21/19/67 26/31/67 10/30/67
f 21/19/68 24/18/68 26/31/68
f 24/18/69 9/27/69 26/31/69
f 24/16/70 25/28/70 9/27/70
f 24/16/71 22/15/71 25/28/71
f 22/15/72 8/24/72 25/28/72
f 22/13/73 23/25/73 8/24/73
f 22/13/74 17/12/74 23/25/74
f 17/12/75 7/65/75 23/25/75
f 20/10/76 21/66/76 10/30/76
f 20/10/77 18/9/77 21/66/77
f 18/9/78 5/67/78 21/66/78
f 17/7/79 19/22/79 7/21/79
f 17/7/80 18/6/80 19/22/80
f 18/6/81 6/8/81 19/22/81
o light
v -1.000000 0.430000 1.600000
v 1.000000 0.430000 1.600000
v -1.000000 2.430000 1.600000
v 1.000000 2.430000 1.600000
vn -0.0000 -0.0000 1.0000
vt 0.000000 0.000000
vt 1.000000 0.000000
vt 1.000000 1.000000
vt 0.000000 1.000000
s 0
usemtl light
f 47/68/82 48/69/82 50/70/82 49/71/82
o ball2
v 0.530000 0.780000 0.050000
v 0.747082 0.622282 0.215834
v 0.447084 0.524805 0.215834
v 0.261672 0.780000 0.215835
v 0.447084 1.035195 0.215834
v 0.747082 0.937718 0.215834
v 0.612916 0.524805 0.484166
v 0.312918 0.622282 0.484166
v 0.312918 0.937718 0.484166
v 0.612916 1.035195 0.484166
v 0.798328 0.780000 0.484165
v 0.530000 0.780000 0.650000
v 0.481263 0.630001 0.094804
v 0.657597 0.687297 0.094804
v 0.608861 0.537296 0.192279
v 0.785194 0.780000 0.192279
v 0.657597 0.872703 0.094804
v 0.372281 0.780000 0.094804
v 0.323543 0.630001 0.192279
v 0.481263 0.929999 0.094804
v 0.323543 0.929999 0.192279
v 0.608861 1.022703 0.192279
v 0.815317 0.687296 0.350000
v 0.815317 0.872704 0.350000
v 0.530000 0.480000 0.350000
v 0.706336 0.537295 0.350000
v 0.244683 0.687296 0.350000
v 0.353664 0.537295 0.350000
v 0.353664 1.022705 0.350000
v 0.244683 0.872704 0.350000
v 0.706336 1.022705 0.350000
v 0.530000 1.080000 0.350000
v 0.736457 0.630001 0.507721
v 0.451139 0.537296 0.507721
v 0.274806 0.780000 0.507721
v 0.451139 1.022703 0.507721
v 0.736457 0.929999 0.507721
v 0.578737 0.630001 0.605196
v 0.687719 0.780000 0.605196
v 0.402403 0.687297 0.605196
v 0.402403 0.872703 0.605196
v 0.578737 0.929999 0.605196
vn 0.1024 -0.3151 -0.9435
vn 0.7002 -0.2680 -0.6617
vn -0.2680 -0.1947 -0.9435
vn -0.2680 0.1947 -0.9435
vn 0.1024 0.3151 -0.9435
vn 0.9050 -0.2680 -0.3304
vn 0.0247 -0.9435 -0.3304
vn -0.8897 -0.3151 -0.3304
vn -0.5746 0.7488 -0.3304
vn 0.5346 0.7779 -0.3304
vn 0.8026 -0.5831 -0.1256
vn -0.3066 -0.9435 -0.1256
vn -0.9921 -0.0000 -0.1256
vn -0.3066 0.9435 -0.1256
vn 0.8026 0.5831 -0.1256
vn 0.4089 -0.6284 0.6617
vn -0.4713 -0.5831 0.6617
vn -0.7002 0.2680 0.6617
vn 0.0385 0.7488 0.6617
vn 0.7240 0.1947 0.6617
vn 0.2680 0.1947 0.9435
vn 0.4911 0.3568 0.7947
vn 0.4089 0.6284 0.6617
vn -0.1024 0.3151 0.9435
vn -0.1876 0.5773 0.7947
vn -0.4713 0.5831 0.6617
vn -0.3313 -0.0000 0.9435
vn -0.6071 -0.0000 0.7947
vn -0.7002 -0.2680 0.6617
vn -0.1024 -0.3151 0.9435
vn -0.1876 -0.5773 0.7947
vn 0.0385 -0.7488 0.6617
vn 0.2680 -0.1947 0.9435
vn 0.4911 -0.3568 0.7947
vn 0.7240 -0.1947 0.6617
vn 0.8897 0.3151 0.3304
vn 0.7947 0.5773 0.1876
vn 0.5746 0.7488 0.3304
vn -0.0247 0.9435 0.3304
vn -0.3035 0.9342 0.1876
vn -0.5346 0.7779 0.3304
vn -0.9050 0.2680 0.3304
vn -0.9822 -0.0000 0.1876
vn -0.9050 -0.2680 0.3304
vn -0.5346 -0.7779 0.3304
vn -0.3035 -0.9342 0.1876
vn -0.0247 -0.9435 0.3304
vn 0.5746 -0.7488 0.3304
vn 0.7947 -0.5773 0.1876
vn 0.8897 -0.3151 0.3304
vn 0.3066 0.9435 0.1256
vn 0.3035 0.9342 -0.1876
vn 0.0247 0.9435 -0.3304
vn -0.8026 0.5831 0.1256
vn -0.7947 0.5773 -0.1876
vn -0.8897 0.3151 -0.3304
vn -0.8026 -0.5831 0.1256
vn -0.7947 -0.5773 -0.1876
vn -0.5746 -0.7488 -0.3304
vn 0.3066 -0.9435 0.1256
vn 0.3035 -0.9342 -0.1876
vn 0.5346 -0.7779 -0.3304
vn 0.9921 -0.0000 0.1256
vn 0.9822 -0.0000 -0.1876
vn 0.9050 0.2680 -0.3304
vn 0.4713 0.5831 -0.6617
vn 0.1876 0.5773 -0.7947
vn -0.0385 0.7488 -0.6617
vn -0.4089 0.6284 -0.6617
vn -0.4911 0.3568 -0.7947
vn -0.7240 0.1947 -0.6617
vn -0.7240 -0.1947 -0.6617
vn -0.4911 -0.3568 -0.7947
vn -0.4089 -0.6284 -0.6617
vn 0.7002 0.2680 -0.6617
vn 0.6071 -0.0000 -0.7947
vn 0.3313 -0.0000 -0.9435
vn -0.0385 -0.7488 -0.6617
vn 0.1876 -0.5773 -0.7947
vn 0.4713 -0.5831 -0.6617
vt 0.181819 0.000000
vt 0.227273 0.078731
vt 0.136365 0.078731
vt 0.272728 0.157461
vt 0.318182 0.078731
vt 0.363637 0.157461
vt 0.909091 0.000000
vt 0.954545 0.078731
vt 0.863636 0.078731
vt 0.727273 0.000000
vt 0.772727 0.078731
vt 0.681818 0.078731
vt 0.545455 0.000000
vt 0.590909 0.078731
vt 0.500000 0.078731
vt 0.318182 0.236191
vt 0.090910 0.157461
vt 0.181819 0.157461
vt 0.136365 0.236191
vt 0.818182 0.157461
vt 0.909091 0.157461
vt 0.863636 0.236191
vt 0.636364 0.157461
vt 0.727273 0.157461
vt 0.681818 0.236191
vt 0.454546 0.157461
vt 0.545455 0.157461
vt 0.500000 0.236191
vt 0.227273 0.236191
vt 0.045455 0.236191
vt 0.772727 0.236191
vt 0.590909 0.236191
vt 0.409092 0.236191
vt 0.181819 0.314921
vt 0.272728 0.314921
vt 0.227273 0.393651
vt 0.000000 0.314921
vt 0.090910 0.314921
vt 0.045455 0.393651
vt 0.727273 0.314921
vt 0.818182 0.314921
vt 0.772727 0.393651
vt 0.545455 0.314921
vt 0.636364 0.314921
vt 0.590909 0.393651
vt 0.363637 0.314921
vt 0.454546 0.314921
vt 0.409092 0.393651
vt 0.500000 0.393651
vt 0.454546 0.472382
vt 0.681818 0.393651
vt 0.636364 0.472382
vt 0.863636 0.393651
vt 0.818182 0.472382
vt 0.909091 0.314921
vt 0.136365 0.393651
vt 0.090910 0.472382
vt 0.318182 0.393651
vt 0.272728 0.472382
vt 0.954545 0.236191
vt 1.000000 0.157461
vt 0.409092 0.078731
vt 0.363637 0.000000
s 0
usemtl ball2
f 51/72/83 64/73/83 63/74/83
f 52/75/84 64/76/84 66/77/84
f 51/78/85 63/79/85 68/80/85
f 51/81/86 68/82/86 70/83/86
f 51/84/87 70/85/87 67/86/87
f 52/75/88 66/77/88 73/87/88
f 53/88/89 65/89/89 75/90/89
f 54/91/90 69/92/90 77/93/90
f 55/94/91 71/95/91 79/96/91
f 56/97/92 72/98/92 81/99/92
f 52/75/93 73/87/93 76/100/93
f 53/88/94 75/90/94 78/101/94
f 54/91/95 77/93/95 80/102/95
f 55/94/96 79/96/96 82/103/96
f 56/97/97 81/99/97 74/104/97
f 57/105/98 83/106/98 88/107/98
f 58/108/99 84/109/99 90/110/99
f 59/111/100 85/112/100 91/113/100
f 60/114/101 86/115/101 92/116/101
f 61/117/102 87/118/102 89/119/102
f 89/119/103 92/120/103 62/121/103
f 89/119/104 87/118/104 92/120/104
f 87/118/105 60/114/105 92/120/105
f 92/116/106 91/122/106 62/123/106
f 92/116/107 86/115/107 91/122/107
f 86/115/108 59/111/108 91/122/108
f 91/113/109 90/124/109 62/125/109
f 91/113/110 85/112/110 90/124/110
f 85/112/111 58/126/111 90/124/111
f 90/110/112 88/127/112 62/128/112
f 90/110/113 84/109/113 88/127/113
f 84/109/114 57/105/114 88/127/114
f 88/107/115 89/129/115 62/130/115
f 88/107/116 83/106/116 89/129/116
f 83/106/117 61/117/117 89/129/117
f 74/104/118 87/118/118 61/117/118
f 74/104/119 81/99/119 87/118/119
f 81/99/120 60/114/120 87/118/120
f 82/103/121 86/115/121 60/114/121
f 82/103/122 79/96/122 86/115/122
f 79/96/123 59/111/123 86/115/123
f 80/102/124 85/112/124 59/111/124
f 80/102/125 77/93/125 85/112/125
f 77/93/126 58/126/126 85/112/126
f 78/101/127 84/109/127 58/108/127
f 78/101/128 75/90/128 84/109/128
f 75/90/129 57/105/129 84/109/129
f 76/100/130 83/106/130 57/105/130
f 76/100/131 73/87/131 83/106/131
f 73/87/132 61/117/132 83/106/132
f 81/99/133 82/103/133 60/114/133
f 81/99/134 72/98/134 82/103/134
f 72/98/135 55/94/135 82/103/135
f 79/96/136 80/102/136 59/111/136
f 79/96/137 71/95/137 80/102/137
f 71/95/138 54/91/138 80/102/138
f 77/93/139 78/131/139 58/126/139
f 77/93/140 69/92/140 78/131/140
f 69/92/141 53/132/141 78/131/141
f 75/90/142 76/100/142 57/105/142
f 75/90/143 65/89/143 76/100/143
f 65/89/144 52/75/144 76/100/144
f 73/87/145 74/104/145 61/117/145
f 73/87/146 66/77/146 74/104/146
f 66/77/147 56/97/147 74/104/147
f 67/86/148 72/98/148 56/97/148
f 67/86/149 70/85/149 72/98/149
f 70/85/150 55/94/150 72/98/150
f 70/83/151 71/95/151 55/94/151
f 70/83/152 68/82/152 71/95/152
f 68/82/153 54/91/153 71/95/153
f 68/80/154 69/92/154 54/91/154
f 68/80/155 63/79/155 69/92/155
f 63/79/156 53/132/156 69/92/156
f 66/77/157 67/133/157 56/97/157
f 66/77/158 64/76/158 67/133/158
f 64/76/159 51/134/159 67/133/159
f 63/74/160 65/89/160 53/88/160
f 63/74/161 64/73/161 65/89/161
f 64/73/162 52/75/162 65/89/162
